<svg width="26" height="26" viewBox="0 0 26 26" fill="none" xmlns="http://www.w3.org/2000/svg">
<path d="M13.0022 24.875C11.3597 24.875 9.81583 24.5633 8.37062 23.94C6.92542 23.3167 5.66833 22.4707 4.59937 21.4022C3.53042 20.3336 2.68406 19.0771 2.06031 17.6325C1.43677 16.1879 1.125 14.6445 1.125 13.0022C1.125 11.3597 1.43677 9.81583 2.06031 8.37062C2.68365 6.92542 3.52969 5.66833 4.59844 4.59937C5.66719 3.53042 6.92396 2.68406 8.36875 2.06031C9.81354 1.43677 11.3573 1.125 13 1.125C14.3167 1.125 15.5625 1.32292 16.7375 1.71875C17.9125 2.11458 18.9904 2.66667 19.9713 3.375L18.6153 4.76219C17.8076 4.20594 16.9327 3.77323 15.9906 3.46406C15.0485 3.15469 14.0517 3 13 3C10.2292 3 7.86979 3.97396 5.92188 5.92188C3.97396 7.86979 3 10.2292 3 13C3 15.7708 3.97396 18.1302 5.92188 20.0781C7.86979 22.026 10.2292 23 13 23C15.7708 23 18.1302 22.026 20.0781 20.0781C22.026 18.1302 23 15.7708 23 13C23 12.5608 22.9711 12.1266 22.9134 11.6972C22.8557 11.2678 22.7692 10.8503 22.6537 10.4447L24.1681 8.91844C24.3973 9.56094 24.5724 10.222 24.6934 10.9016C24.8145 11.5809 24.875 12.2804 24.875 13C24.875 14.6427 24.5633 16.1865 23.94 17.6313C23.3167 19.076 22.4707 20.3328 21.4022 21.4016C20.3336 22.4703 19.0771 23.3164 17.6325 23.9397C16.1879 24.5632 14.6445 24.875 13.0022 24.875ZM11.2259 18.3172L6.34625 13.4375L7.66344 12.1203L11.2259 15.6828L23.5578 3.33187L24.875 4.64906L11.2259 18.3172Z" fill="#05B52B" stroke="#05B52B"/>
</svg>
