<svg width="20" height="20" viewBox="0 0 20 20" fill="none" xmlns="http://www.w3.org/2000/svg">
<path d="M12.9167 16.3077L9.66353 13.0546L10.5417 12.1763L12.9167 14.5513L17.641 9.82689L18.5192 10.7052L12.9167 16.3077ZM17.0833 8.33334H15.8333V4.42314C15.8333 4.35897 15.8066 4.30022 15.7531 4.24689C15.6998 4.19341 15.641 4.16668 15.5769 4.16668H13.75V6.34605H6.24999V4.16668H4.42311C4.35895 4.16668 4.3002 4.19341 4.24687 4.24689C4.19339 4.30022 4.16666 4.35897 4.16666 4.42314V15.5769C4.16666 15.6411 4.19339 15.6998 4.24687 15.7531C4.3002 15.8066 4.35895 15.8333 4.42311 15.8333H9.16666V17.0833H4.42311C4.00756 17.0833 3.65256 16.9362 3.35811 16.6419C3.06381 16.3474 2.91666 15.9924 2.91666 15.5769V4.42314C2.91666 4.00758 3.06381 3.65258 3.35811 3.35814C3.65256 3.06383 4.00756 2.91668 4.42311 2.91668H8.09457C8.20999 2.51071 8.44582 2.17418 8.80207 1.90709C9.15832 1.64001 9.55763 1.50647 9.99999 1.50647C10.4594 1.50647 10.8651 1.64001 11.2171 1.90709C11.5692 2.17418 11.8029 2.51071 11.9183 2.91668H15.5769C15.9924 2.91668 16.3474 3.06383 16.6419 3.35814C16.9362 3.65258 17.0833 4.00758 17.0833 4.42314V8.33334ZM9.99999 4.26293C10.2147 4.26293 10.3939 4.19105 10.5377 4.0473C10.6813 3.90355 10.7531 3.72432 10.7531 3.5096C10.7531 3.29487 10.6813 3.11564 10.5377 2.97189C10.3939 2.82828 10.2147 2.75647 9.99999 2.75647C9.78527 2.75647 9.60603 2.82828 9.46228 2.97189C9.31867 3.11564 9.24687 3.29487 9.24687 3.5096C9.24687 3.72432 9.31867 3.90355 9.46228 4.0473C9.60603 4.19105 9.78527 4.26293 9.99999 4.26293Z" fill="#78788C" fill-opacity="0.6"/>
</svg>
