<svg width="20" height="20" viewBox="0 0 20 20" fill="none" xmlns="http://www.w3.org/2000/svg">
<path d="M10.0014 9.88775C10.416 9.88775 10.7705 9.74011 11.0648 9.44483C11.3592 9.14955 11.5064 8.79462 11.5064 8.38004C11.5064 7.96546 11.3588 7.61094 11.0635 7.3165C10.7683 7.02219 10.4133 6.87504 9.99853 6.87504C9.58395 6.87504 9.22951 7.02268 8.9352 7.31796C8.64076 7.61324 8.49353 7.96824 8.49353 8.38296C8.49353 8.79754 8.64117 9.15199 8.93645 9.44629C9.23173 9.7406 9.58673 9.88775 10.0014 9.88775ZM9.99999 16.2613C11.6303 14.8018 12.8778 13.402 13.7427 12.0617C14.6076 10.7214 15.04 9.54754 15.04 8.54004C15.04 7.02087 14.5574 5.77199 13.5921 4.79337C12.6268 3.81476 11.4294 3.32546 9.99999 3.32546C8.57055 3.32546 7.37319 3.81476 6.40791 4.79337C5.44263 5.77199 4.95999 7.02087 4.95999 8.54004C4.95999 9.54754 5.39242 10.7214 6.25728 12.0617C7.12214 13.402 8.36971 14.8018 9.99999 16.2613ZM9.99999 17.9246C7.90277 16.1074 6.33013 14.4162 5.28207 12.8511C4.23402 11.2858 3.70999 9.84879 3.70999 8.54004C3.70999 6.61698 4.33201 5.06011 5.57603 3.86942C6.8202 2.67872 8.29485 2.08337 9.99999 2.08337C11.7051 2.08337 13.1798 2.67872 14.4239 3.86942C15.668 5.06011 16.29 6.61698 16.29 8.54004C16.29 9.84879 15.766 11.2858 14.7179 12.8511C13.6699 14.4162 12.0972 16.1074 9.99999 17.9246Z" fill="#78788C" fill-opacity="0.6"/>
</svg>
