<svg width="20" height="20" viewBox="0 0 20 20" fill="none" xmlns="http://www.w3.org/2000/svg">
<path d="M11.5541 0.5C13.174 0.5 14.5822 0.816667 15.7788 1.45C16.9754 2.08333 17.8948 2.97302 18.5369 4.11905C19.179 5.25 19.5 6.5619 19.5 8.05476C19.5 9.24603 19.3103 10.3921 18.9309 11.4929C18.5515 12.5786 17.9969 13.4607 17.2673 14.1393C16.5522 14.8179 15.7131 15.1571 14.75 15.1571C14.0204 15.1571 13.4585 14.9687 13.0645 14.5917C12.6705 14.2147 12.4443 13.702 12.3859 13.0536C11.9336 13.702 11.3571 14.2147 10.6567 14.5917C9.97081 14.9687 9.24117 15.1571 8.46774 15.1571C7.35868 15.1571 6.4831 14.8103 5.84101 14.1167C5.21352 13.4079 4.89977 12.4579 4.89977 11.2667C4.89977 10.1357 5.12596 9.08016 5.57834 8.1C6.04532 7.11984 6.6874 6.33571 7.50461 5.74762C8.32181 5.14444 9.24846 4.84286 10.2846 4.84286C11.6709 4.84286 12.6048 5.38571 13.0864 6.47143L13.3272 5.06905H15.0565L13.962 11.606C13.9182 11.8925 13.8963 12.1563 13.8963 12.3976C13.8963 13.3024 14.283 13.7548 15.0565 13.7548C15.6402 13.7548 16.1436 13.4683 16.5668 12.8952C17.0046 12.3222 17.3329 11.606 17.5518 10.7464C17.7707 9.87183 17.8802 9.0123 17.8802 8.16786C17.8802 6.19246 17.3038 4.6619 16.1509 3.57619C15.0127 2.49048 13.4002 1.94762 11.3134 1.94762C9.57681 1.94762 8.00806 2.38492 6.60714 3.25952C5.22081 4.11905 4.13364 5.30278 3.34562 6.81071C2.5576 8.31865 2.16359 9.98492 2.16359 11.8095C2.149 13.8 2.72542 15.3306 3.89286 16.4012C5.06029 17.4869 6.68011 18.0298 8.75231 18.0298C10.124 18.0298 11.3353 17.7734 12.3859 17.2607L12.6486 18.6631C11.3498 19.221 9.91974 19.5 8.3583 19.5C6.79685 19.5 5.41782 19.1909 4.2212 18.5726C3.03917 17.9694 2.11982 17.0948 1.46313 15.9488C0.821045 14.8179 0.5 13.4984 0.5 11.9905C0.5 9.86429 0.97427 7.92659 1.92281 6.17738C2.87135 4.4131 4.18472 3.02579 5.8629 2.01548C7.55568 1.00516 9.45276 0.5 11.5541 0.5ZM9.05876 13.5512C9.71544 13.5512 10.321 13.3552 10.8756 12.9631C11.4301 12.556 11.8679 12.0131 12.1889 11.3345C12.51 10.6409 12.6705 9.8869 12.6705 9.07262C12.6705 8.28849 12.4589 7.65516 12.0357 7.17262C11.6271 6.675 11.0434 6.42619 10.2846 6.42619C9.5841 6.42619 8.9639 6.64484 8.42396 7.08214C7.89862 7.50436 7.49002 8.06984 7.19816 8.77857C6.9063 9.47222 6.76037 10.196 6.76037 10.95C6.76037 11.7492 6.95737 12.3825 7.35138 12.85C7.74539 13.3175 8.31452 13.5512 9.05876 13.5512Z" fill="#0F3C54"/>
</svg>
