<svg width="28" height="28" viewBox="0 0 28 28" fill="none" xmlns="http://www.w3.org/2000/svg">
<path d="M25.6654 14.0002H22.772C22.2622 13.9991 21.766 14.165 21.3593 14.4726C20.9527 14.7802 20.658 15.2126 20.5204 15.7035L17.7787 25.4568C17.761 25.5174 17.7242 25.5706 17.6737 25.6085C17.6232 25.6464 17.5618 25.6668 17.4987 25.6668C17.4356 25.6668 17.3742 25.6464 17.3237 25.6085C17.2732 25.5706 17.2364 25.5174 17.2187 25.4568L10.7787 2.5435C10.761 2.48291 10.7242 2.42969 10.6737 2.39183C10.6232 2.35396 10.5618 2.3335 10.4987 2.3335C10.4356 2.3335 10.3742 2.35396 10.3237 2.39183C10.2732 2.42969 10.2364 2.48291 10.2187 2.5435L7.47703 12.2968C7.33991 12.7858 7.04698 13.2168 6.64271 13.5242C6.23844 13.8316 5.7449 13.9987 5.23703 14.0002H2.33203" stroke="#9810FA" stroke-width="1.8" stroke-linecap="round" stroke-linejoin="round"/>
</svg>
