<svg width="28" height="28" viewBox="0 0 28 28" fill="none" xmlns="http://www.w3.org/2000/svg">
<path d="M2.40495 14.4059C2.30772 14.144 2.30772 13.8559 2.40495 13.5939C3.35194 11.2978 4.95939 9.33448 7.02352 7.95298C9.08765 6.57148 11.5155 5.83398 13.9993 5.83398C16.4831 5.83398 18.9109 6.57148 20.9751 7.95298C23.0392 9.33448 24.6466 11.2978 25.5936 13.5939C25.6909 13.8559 25.6909 14.144 25.5936 14.4059C24.6466 16.7021 23.0392 18.6654 20.9751 20.0469C18.9109 21.4284 16.4831 22.1659 13.9993 22.1659C11.5155 22.1659 9.08765 21.4284 7.02352 20.0469C4.95939 18.6654 3.35194 16.7021 2.40495 14.4059Z" stroke="#155DFC" stroke-width="1.8" stroke-linecap="round" stroke-linejoin="round"/>
<path d="M14 17.5C15.933 17.5 17.5 15.933 17.5 14C17.5 12.067 15.933 10.5 14 10.5C12.067 10.5 10.5 12.067 10.5 14C10.5 15.933 12.067 17.5 14 17.5Z" stroke="#155DFC" stroke-width="1.8" stroke-linecap="round" stroke-linejoin="round"/>
</svg>
