<svg width="24" height="24" viewBox="0 0 24 24" fill="none" xmlns="http://www.w3.org/2000/svg">
<path d="M6 21V5.83473C6 5.32202 6.175 4.88806 6.525 4.53284C6.875 4.17761 7.30258 4 7.80775 4H17.1923C17.6974 4 18.125 4.17761 18.475 4.53284C18.825 4.88806 19 5.32202 19 5.83473V21L12.5 18.1699L6 21ZM7.5 18.6657L12.5 16.4836L17.5 18.6657V5.83473C17.5 5.75658 17.4679 5.68503 17.4038 5.62007C17.3398 5.55495 17.2692 5.52239 17.1923 5.52239H7.80775C7.73075 5.52239 7.66025 5.55495 7.59625 5.62007C7.53208 5.68503 7.5 5.75658 7.5 5.83473V18.6657Z" fill="#0F3C54"/>
</svg>
