<svg width="24" height="24" viewBox="0 0 24 24" fill="none" xmlns="http://www.w3.org/2000/svg">
<path d="M9 19.5C9.41421 19.5 9.75 19.1642 9.75 18.75C9.75 18.3358 9.41421 18 9 18C8.58579 18 8.25 18.3358 8.25 18.75C8.25 19.1642 8.58579 19.5 9 19.5Z" stroke="#00A63E" stroke-width="1.16667" stroke-linecap="round" stroke-linejoin="round"/>
<path d="M17.25 19.5C17.6642 19.5 18 19.1642 18 18.75C18 18.3358 17.6642 18 17.25 18C16.8358 18 16.5 18.3358 16.5 18.75C16.5 19.1642 16.8358 19.5 17.25 19.5Z" stroke="#00A63E" stroke-width="1.16667" stroke-linecap="round" stroke-linejoin="round"/>
<path d="M4.53711 4.5376H6.03711L8.03211 13.8526C8.10529 14.1937 8.29511 14.4987 8.56889 14.715C8.84267 14.9313 9.18329 15.0454 9.53211 15.0376H16.8671C17.2085 15.037 17.5395 14.9201 17.8054 14.706C18.0713 14.4919 18.2562 14.1935 18.3296 13.8601L19.5671 8.2876H6.83961" stroke="#00A63E" stroke-width="1.16667" stroke-linecap="round" stroke-linejoin="round"/>
</svg>
