<svg width="28" height="28" viewBox="0 0 28 28" fill="none" xmlns="http://www.w3.org/2000/svg">
<path d="M14.6824 3.01716C14.2449 2.57955 13.6515 2.33363 13.0327 2.3335H4.66536C4.04653 2.3335 3.45303 2.57933 3.01545 3.01691C2.57786 3.4545 2.33203 4.04799 2.33203 4.66683V13.0342C2.33216 13.653 2.57808 14.2463 3.0157 14.6838L13.1704 24.8385C13.7006 25.3654 14.4178 25.6612 15.1654 25.6612C15.9129 25.6612 16.6301 25.3654 17.1604 24.8385L24.837 17.1618C25.3639 16.6316 25.6597 15.9144 25.6597 15.1668C25.6597 14.4193 25.3639 13.7021 24.837 13.1718L14.6824 3.01716Z" stroke="#155DFC" stroke-width="1.8" stroke-linecap="round" stroke-linejoin="round"/>
<path d="M8.7513 9.33317C9.07347 9.33317 9.33464 9.072 9.33464 8.74984C9.33464 8.42767 9.07347 8.1665 8.7513 8.1665C8.42914 8.1665 8.16797 8.42767 8.16797 8.74984C8.16797 9.072 8.42914 9.33317 8.7513 9.33317Z" fill="#155DFC" stroke="#155DFC" stroke-width="1.8" stroke-linecap="round" stroke-linejoin="round"/>
</svg>
