<svg width="28" height="24" viewBox="0 0 28 24" fill="none" xmlns="http://www.w3.org/2000/svg">
<path d="M7.40234 21V4.8C7.40234 4.32261 7.63412 3.86477 8.04668 3.52721C8.45925 3.18964 9.01881 3 9.60226 3H18.4019C18.9854 3 19.5449 3.18964 19.9575 3.52721C20.3701 3.86477 20.6019 4.32261 20.6019 4.8V21H7.40234Z" stroke="#0F3C54" stroke-width="1.2" stroke-linecap="round" stroke-linejoin="round"/>
<path d="M7.39984 12H5.19992C4.61646 12 4.05691 12.1896 3.64434 12.5272C3.23178 12.8648 3 13.3226 3 13.8V19.2C3 19.6774 3.23178 20.1352 3.64434 20.4728C4.05691 20.8104 4.61646 21 5.19992 21H7.39984" stroke="#0F3C54" stroke-width="1.2" stroke-linecap="round" stroke-linejoin="round"/>
<path d="M20.5996 9.2998H22.7995C23.383 9.2998 23.9425 9.48945 24.3551 9.82701C24.7677 10.1646 24.9994 10.6224 24.9994 11.0998V19.1998C24.9994 19.6772 24.7677 20.135 24.3551 20.4726C23.9425 20.8102 23.383 20.9998 22.7995 20.9998H20.5996" stroke="#0F3C54" stroke-width="1.2" stroke-linecap="round" stroke-linejoin="round"/>
<path d="M11.8027 6.6001H16.2026" stroke="#0F3C54" stroke-width="1.2" stroke-linecap="round" stroke-linejoin="round"/>
<path d="M11.8027 10.2002H16.2026" stroke="#0F3C54" stroke-width="1.2" stroke-linecap="round" stroke-linejoin="round"/>
<path d="M11.8027 13.7998H16.2026" stroke="#0F3C54" stroke-width="1.2" stroke-linecap="round" stroke-linejoin="round"/>
<path d="M11.8027 17.3999H16.2026" stroke="#0F3C54" stroke-width="1.2" stroke-linecap="round" stroke-linejoin="round"/>
</svg>
