<svg width="24" height="24" viewBox="0 0 24 24" fill="none" xmlns="http://www.w3.org/2000/svg">
<path d="M9.50016 16.6661C9.89068 17.0566 10.5238 17.0566 10.9144 16.6661L14.4534 13.1271L18.0339 9.54647C18.4015 9.17891 18.4015 8.58298 18.0339 8.21542C17.6664 7.84786 17.0705 7.84786 16.7029 8.21542L10.2073 14.7111L7.27279 11.7766C6.90523 11.409 6.3093 11.409 5.94174 11.7766C5.57418 12.1441 5.57418 12.7401 5.94174 13.1076L9.50016 16.6661ZM12.0022 24C10.3424 24 8.78232 23.6851 7.32189 23.0552C5.86147 22.4253 4.59116 21.5704 3.51095 20.4906C2.43074 19.4108 1.57547 18.1411 0.945158 16.6813C0.315052 15.2215 0 13.6618 0 12.0022C0 10.3424 0.314947 8.78232 0.944842 7.32189C1.57474 5.86147 2.42958 4.59116 3.50937 3.51095C4.58916 2.43074 5.85895 1.57547 7.31874 0.945158C8.77853 0.315052 10.3382 0 11.9978 0C13.6576 0 15.2177 0.314947 16.6781 0.944842C18.1385 1.57474 19.4088 2.42958 20.4891 3.50937C21.5693 4.58916 22.4245 5.85895 23.0548 7.31874C23.6849 8.77853 24 10.3382 24 11.9978C24 13.6576 23.6851 15.2177 23.0552 16.6781C22.4253 18.1385 21.5704 19.4088 20.4906 20.4891C19.4108 21.5693 18.1411 22.4245 16.6813 23.0548C15.2215 23.6849 13.6618 24 12.0022 24ZM12 22.1053C14.8211 22.1053 17.2105 21.1263 19.1684 19.1684C21.1263 17.2105 22.1053 14.8211 22.1053 12C22.1053 9.17895 21.1263 6.78947 19.1684 4.83158C17.2105 2.87368 14.8211 1.89474 12 1.89474C9.17895 1.89474 6.78947 2.87368 4.83158 4.83158C2.87368 6.78947 1.89474 9.17895 1.89474 12C1.89474 14.8211 2.87368 17.2105 4.83158 19.1684C6.78947 21.1263 9.17895 22.1053 12 22.1053Z" fill="#05B52B"/>
</svg>
