<svg width="24" height="24" viewBox="0 0 24 24" fill="none" xmlns="http://www.w3.org/2000/svg">
<path d="M14.25 4H7.5C7.10218 4 6.72064 4.16857 6.43934 4.46863C6.15804 4.76869 6 5.17565 6 5.6V18.4C6 18.8243 6.15804 19.2313 6.43934 19.5314C6.72064 19.8314 7.10218 20 7.5 20H16.5C16.8978 20 17.2794 19.8314 17.5607 19.5314C17.842 19.2313 18 18.8243 18 18.4V8L14.25 4Z" stroke="#0F3C54" stroke-width="1.16667" stroke-linecap="round" stroke-linejoin="round"/>
<path d="M13.5 4V7.2C13.5 7.62435 13.658 8.03131 13.9393 8.33137C14.2206 8.63143 14.6022 8.8 15 8.8H18" stroke="#0F3C54" stroke-width="1.16667" stroke-linecap="round" stroke-linejoin="round"/>
<path d="M10.5 9.6001H9" stroke="#0F3C54" stroke-width="1.16667" stroke-linecap="round" stroke-linejoin="round"/>
<path d="M15 12.7998H9" stroke="#0F3C54" stroke-width="1.16667" stroke-linecap="round" stroke-linejoin="round"/>
<path d="M15 16H9" stroke="#0F3C54" stroke-width="1.16667" stroke-linecap="round" stroke-linejoin="round"/>
</svg>
