<svg width="18" height="19" viewBox="0 0 18 19" fill="none" xmlns="http://www.w3.org/2000/svg">
<path d="M9 2.75H3.75C3.35218 2.75 2.97064 2.90804 2.68934 3.18934C2.40804 3.47064 2.25 3.85218 2.25 4.25V14.75C2.25 15.1478 2.40804 15.5294 2.68934 15.8107C2.97064 16.092 3.35218 16.25 3.75 16.25H14.25C14.6478 16.25 15.0294 16.092 15.3107 15.8107C15.592 15.5294 15.75 15.1478 15.75 14.75V9.5" stroke="#0F3C54" stroke-width="1.16667" stroke-linecap="round" stroke-linejoin="round"/>
<path d="M13.7803 2.46892C14.0787 2.17055 14.4834 2.00293 14.9053 2.00293C15.3273 2.00293 15.732 2.17055 16.0303 2.46892C16.3287 2.76729 16.4963 3.17196 16.4963 3.59392C16.4963 4.01588 16.3287 4.42055 16.0303 4.71892L9.27059 11.4794C9.09251 11.6574 8.8725 11.7876 8.63084 11.8582L6.47609 12.4882C6.41156 12.507 6.34315 12.5081 6.27803 12.4914C6.2129 12.4748 6.15346 12.4409 6.10593 12.3933C6.05839 12.3458 6.02451 12.2864 6.00783 12.2212C5.99114 12.1561 5.99227 12.0877 6.01109 12.0232L6.64109 9.86842C6.71199 9.62696 6.84249 9.40721 7.02059 9.22942L13.7803 2.46892Z" stroke="#0F3C54" stroke-width="1.16667" stroke-linecap="round" stroke-linejoin="round"/>
</svg>
