<svg width="20" height="20" viewBox="0 0 20 20" fill="none" xmlns="http://www.w3.org/2000/svg">
<path d="M13.4061 8.80765C13.7699 8.80765 14.0785 8.68029 14.3317 8.42558C14.5849 8.17088 14.7115 7.86158 14.7115 7.4977C14.7115 7.13383 14.5841 6.8253 14.3294 6.5721C14.0747 6.3189 13.7654 6.1923 13.4016 6.1923C13.0377 6.1923 12.7292 6.31966 12.476 6.57438C12.2227 6.82908 12.0961 7.13837 12.0961 7.50225C12.0961 7.86612 12.2235 8.17465 12.4782 8.42785C12.7329 8.68105 13.0422 8.80765 13.4061 8.80765ZM6.5984 8.80765C6.96227 8.80765 7.2708 8.68029 7.524 8.42558C7.77722 8.17088 7.90383 7.86158 7.90383 7.4977C7.90383 7.13383 7.77647 6.8253 7.52175 6.5721C7.26703 6.3189 6.95774 6.1923 6.59388 6.1923C6.23001 6.1923 5.92147 6.31966 5.66825 6.57438C5.41505 6.82908 5.28845 7.13837 5.28845 7.50225C5.28845 7.86612 5.41581 8.17465 5.67053 8.42785C5.92524 8.68105 6.23453 8.80765 6.5984 8.80765ZM9.99998 15.1923C11.0436 15.1923 11.9974 14.9003 12.8615 14.3163C13.7256 13.7323 14.3628 12.9602 14.773 12H13.45C13.0833 12.6166 12.5958 13.1041 11.9875 13.4625C11.3791 13.8208 10.7166 14 9.99998 14C9.28331 14 8.62081 13.8208 8.01248 13.4625C7.40414 13.1041 6.91664 12.6166 6.54998 12H5.22693C5.63718 12.9602 6.27435 13.7323 7.13845 14.3163C8.00255 14.9003 8.95639 15.1923 9.99998 15.1923ZM10.0016 19.5C8.68772 19.5 7.45268 19.2506 6.29655 18.752C5.1404 18.2533 4.13472 17.5765 3.2795 16.7217C2.42427 15.8669 1.74721 14.8616 1.24833 13.706C0.749442 12.5504 0.5 11.3156 0.5 10.0017C0.5 8.68772 0.749334 7.45268 1.248 6.29655C1.74667 5.1404 2.42342 4.13472 3.27825 3.2795C4.1331 2.42427 5.13834 1.74721 6.29398 1.24833C7.44959 0.749443 8.68437 0.5 9.9983 0.5C11.3122 0.5 12.5473 0.749334 13.7034 1.248C14.8596 1.74667 15.8652 2.42342 16.7205 3.27825C17.5757 4.1331 18.2527 5.13834 18.7516 6.29398C19.2505 7.44959 19.5 8.68437 19.5 9.9983C19.5 11.3122 19.2506 12.5473 18.752 13.7034C18.2533 14.8596 17.5765 15.8652 16.7217 16.7205C15.8669 17.5757 14.8616 18.2527 13.706 18.7516C12.5504 19.2505 11.3156 19.5 10.0016 19.5ZM9.99998 18C12.2333 18 14.125 17.225 15.675 15.675C17.225 14.125 18 12.2333 18 9.99998C18 7.76664 17.225 5.87498 15.675 4.32498C14.125 2.77498 12.2333 1.99998 9.99998 1.99998C7.76664 1.99998 5.87498 2.77498 4.32498 4.32498C2.77498 5.87498 1.99998 7.76664 1.99998 9.99998C1.99998 12.2333 2.77498 14.125 4.32498 15.675C5.87498 17.225 7.76664 18 9.99998 18Z" fill="#0F3C54"/>
</svg>
