<svg width="18" height="19" viewBox="0 0 18 19" fill="none" xmlns="http://www.w3.org/2000/svg">
<path d="M1.54688 9.76103C1.48437 9.59264 1.48437 9.40741 1.54688 9.23903C2.15565 7.76292 3.18902 6.50081 4.51596 5.6127C5.8429 4.72459 7.40366 4.25049 9.00038 4.25049C10.5971 4.25049 12.1579 4.72459 13.4848 5.6127C14.8117 6.50081 15.8451 7.76292 16.4539 9.23903C16.5164 9.40741 16.5164 9.59264 16.4539 9.76103C15.8451 11.2371 14.8117 12.4992 13.4848 13.3874C12.1579 14.2755 10.5971 14.7496 9.00038 14.7496C7.40366 14.7496 5.8429 14.2755 4.51596 13.3874C3.18902 12.4992 2.15565 11.2371 1.54688 9.76103Z" stroke="#0F3C54" stroke-width="1.16667" stroke-linecap="round" stroke-linejoin="round"/>
<path d="M9 11.75C10.2426 11.75 11.25 10.7426 11.25 9.5C11.25 8.25736 10.2426 7.25 9 7.25C7.75736 7.25 6.75 8.25736 6.75 9.5C6.75 10.7426 7.75736 11.75 9 11.75Z" stroke="#0F3C54" stroke-width="1.16667" stroke-linecap="round" stroke-linejoin="round"/>
</svg>
