<svg width="20" height="20" viewBox="0 0 20 20" fill="none" xmlns="http://www.w3.org/2000/svg">
<path d="M3.33398 18.3332V3.33317C3.33398 3.2038 3.36411 3.07621 3.42196 2.96049C3.47982 2.84478 3.56382 2.74413 3.66732 2.6665C4.5328 2.01739 5.58547 1.6665 6.66732 1.6665C9.16732 1.6665 10.834 3.33317 12.7782 3.33317C13.8893 3.33317 14.7412 3.11095 15.334 2.6665C15.4578 2.57365 15.605 2.5171 15.7591 2.5032C15.9133 2.48931 16.0682 2.5186 16.2067 2.58781C16.3451 2.65703 16.4615 2.76341 16.5429 2.89506C16.6242 3.02671 16.6673 3.17841 16.6673 3.33317V11.6665C16.6673 11.7959 16.6372 11.9235 16.5793 12.0392C16.5215 12.1549 16.4375 12.2555 16.334 12.3332C15.4685 12.9823 14.4158 13.3332 13.334 13.3332C10.834 13.3332 9.16732 11.6665 6.66732 11.6665C5.43742 11.6665 4.25067 12.1199 3.33398 12.9398" stroke="#FB2C36" stroke-width="1.16667" stroke-linecap="round" stroke-linejoin="round"/>
</svg>
