<svg width="46" height="46" viewBox="0 0 46 46" fill="none" xmlns="http://www.w3.org/2000/svg">
<path d="M40.2857 1H5.71429C3.11066 1 1 3.11066 1 5.71429V40.2857C1 42.8893 3.11066 45 5.71429 45H40.2857C42.8893 45 45 42.8893 45 40.2857V5.71429C45 3.11066 42.8893 1 40.2857 1Z" stroke="#DCDBDD" stroke-width="2" stroke-linejoin="round"/>
<path d="M1 33.9998L13.5714 19.8569L38.7143 44.9998" stroke="#DCDBDD" stroke-width="2" stroke-linejoin="round"/>
<path d="M30.0703 21.4287C33.1079 21.4287 35.5703 18.9663 35.5703 15.9287C35.5703 12.8911 33.1079 10.4287 30.0703 10.4287C27.0327 10.4287 24.5703 12.8911 24.5703 15.9287C24.5703 18.9663 27.0327 21.4287 30.0703 21.4287Z" stroke="#DCDBDD" stroke-width="2" stroke-linejoin="round"/>
</svg>
