<svg width="24" height="24" viewBox="0 0 24 24" fill="none" xmlns="http://www.w3.org/2000/svg">
<path d="M19.2973 16.5002L13.2973 6.00017C13.1665 5.76932 12.9768 5.57731 12.7475 5.44372C12.5183 5.31013 12.2577 5.23975 11.9923 5.23975C11.727 5.23975 11.4664 5.31013 11.2371 5.44372C11.0079 5.57731 10.8182 5.76932 10.6873 6.00017L4.68733 16.5002C4.55509 16.7292 4.48575 16.9891 4.48633 17.2536C4.48692 17.518 4.55741 17.7776 4.69066 18.006C4.82391 18.2345 5.01519 18.4236 5.2451 18.5543C5.47501 18.685 5.73538 18.7525 5.99983 18.7502H17.9998C18.263 18.7499 18.5215 18.6804 18.7493 18.5486C18.9771 18.4169 19.1662 18.2275 19.2977 17.9995C19.4292 17.7715 19.4984 17.513 19.4983 17.2498C19.4982 16.9866 19.4289 16.7281 19.2973 16.5002Z" stroke="#00A63E" stroke-width="1.16667" stroke-linecap="round" stroke-linejoin="round"/>
<path d="M12 9.75V12.75" stroke="#00A63E" stroke-width="1.16667" stroke-linecap="round" stroke-linejoin="round"/>
<path d="M12 15.75H12.0075" stroke="#00A63E" stroke-width="1.16667" stroke-linecap="round" stroke-linejoin="round"/>
</svg>
