<svg width="42" height="42" viewBox="0 0 42 42" fill="none" xmlns="http://www.w3.org/2000/svg">
<rect width="42" height="42" rx="21" fill="#ECECF0"/>
<path d="M16.4257 25.0984C15.9173 25.0984 15.4417 24.9918 14.9989 24.7786C14.5561 24.5654 14.1953 24.2579 13.9165 23.8561L14.6299 23.0197C14.8677 23.3477 15.1342 23.6019 15.4294 23.7823C15.7328 23.9545 16.0649 24.0406 16.4257 24.0406C17.4097 24.0406 17.9017 23.4584 17.9017 22.294V17.4601H14.7898V16.39H19.1194V22.2325C19.1194 23.1919 18.8898 23.9094 18.4306 24.385C17.9796 24.8606 17.3113 25.0984 16.4257 25.0984ZM24.134 25.0984C23.478 25.0984 22.8507 25 22.2521 24.8032C21.6535 24.5982 21.182 24.3358 20.8376 24.016L21.2927 23.0566C21.6207 23.3436 22.0389 23.5814 22.5473 23.77C23.0557 23.9586 23.5846 24.0529 24.134 24.0529C24.6342 24.0529 25.0401 23.9955 25.3517 23.8807C25.6633 23.7659 25.8929 23.6101 26.0405 23.4133C26.1881 23.2083 26.2619 22.9787 26.2619 22.7245C26.2619 22.4293 26.1635 22.1915 25.9667 22.0111C25.7781 21.8307 25.528 21.6872 25.2164 21.5806C24.913 21.4658 24.5768 21.3674 24.2078 21.2854C23.8388 21.2034 23.4657 21.1091 23.0885 21.0025C22.7195 20.8877 22.3792 20.7442 22.0676 20.572C21.7642 20.3998 21.5182 20.1702 21.3296 19.8832C21.141 19.588 21.0467 19.2108 21.0467 18.7516C21.0467 18.3088 21.1615 17.9029 21.3911 17.5339C21.6289 17.1567 21.9897 16.8574 22.4735 16.636C22.9655 16.4064 23.5887 16.2916 24.3431 16.2916C24.8433 16.2916 25.3394 16.3572 25.8314 16.4884C26.3234 16.6196 26.7498 16.8082 27.1106 17.0542L26.7047 18.0382C26.3357 17.7922 25.9462 17.6159 25.5362 17.5093C25.1262 17.3945 24.7285 17.3371 24.3431 17.3371C23.8593 17.3371 23.4616 17.3986 23.15 17.5216C22.8384 17.6446 22.6088 17.8086 22.4612 18.0136C22.3218 18.2186 22.2521 18.4482 22.2521 18.7024C22.2521 19.0058 22.3464 19.2477 22.535 19.4281C22.7318 19.6085 22.9819 19.752 23.2853 19.8586C23.5969 19.9652 23.9372 20.0636 24.3062 20.1538C24.6752 20.2358 25.0442 20.3301 25.4132 20.4367C25.7904 20.5433 26.1307 20.6827 26.4341 20.8549C26.7457 21.0271 26.9958 21.2567 27.1844 21.5437C27.373 21.8307 27.4673 22.1997 27.4673 22.6507C27.4673 23.0853 27.3484 23.4912 27.1106 23.8684C26.8728 24.2374 26.5038 24.5367 26.0036 24.7663C25.5116 24.9877 24.8884 25.0984 24.134 25.0984Z" fill="#0A0A0A"/>
</svg>
