<svg width="22" height="22" viewBox="0 0 22 22" fill="none" xmlns="http://www.w3.org/2000/svg">
<path d="M18.8792 11.131C19.3545 11.131 19.7445 10.7444 19.6972 10.2717C19.4987 8.29485 18.6226 6.44751 17.2176 5.04282C15.8126 3.63812 13.9651 2.76252 11.9882 2.56445C11.5147 2.51709 11.1289 2.90715 11.1289 3.38244V10.2708C11.1289 10.4992 11.2196 10.7182 11.3811 10.8797C11.5426 11.0411 11.7616 11.1318 11.99 11.1318L18.8792 11.131Z" stroke="#F46200" stroke-width="1.2399" stroke-linecap="round" stroke-linejoin="round"/>
<path d="M19.0645 14.4801C18.5167 15.7755 17.6599 16.9171 16.569 17.8049C15.4782 18.6927 14.1864 19.2997 12.8068 19.573C11.4271 19.8463 10.0015 19.7774 8.65455 19.3724C7.30764 18.9674 6.08044 18.2386 5.08024 17.2498C4.08005 16.261 3.33731 15.0422 2.91697 13.7C2.49662 12.3578 2.41147 10.933 2.66895 9.55031C2.92644 8.1676 3.51872 6.86901 4.39401 5.76808C5.26931 4.66715 6.40097 3.7974 7.69006 3.23486" stroke="#F46200" stroke-width="1.2399" stroke-linecap="round" stroke-linejoin="round"/>
</svg>
