<svg width="18" height="19" viewBox="0 0 18 19" fill="none" xmlns="http://www.w3.org/2000/svg">
<path d="M8.20588 17.1077V9.93294L1.58824 6.29531V13.2962C1.58824 13.3476 1.60182 13.3959 1.629 13.4412C1.65618 13.4862 1.69685 13.5248 1.75103 13.557L8.20588 17.1077ZM9.79412 17.1077L16.249 13.557C16.3031 13.5248 16.3438 13.4862 16.371 13.4412C16.3982 13.3959 16.4118 13.3476 16.4118 13.2962V6.29531L9.79412 9.93294V17.1077ZM9 8.63412L15.5382 5.04675L9.16279 1.54631C9.10862 1.51415 9.05435 1.49807 9 1.49807C8.94565 1.49807 8.89138 1.51415 8.83721 1.54631L2.46176 5.04675L9 8.63412ZM0.957177 14.8809C0.655765 14.7161 0.420882 14.4958 0.252529 14.2201C0.0841763 13.9442 0 13.6413 0 13.3115V5.68849C0 5.35866 0.0841763 5.0558 0.252529 4.7799C0.420882 4.50418 0.655765 4.28389 0.957177 4.11906L8.04309 0.247501C8.34432 0.0825011 8.66329 0 9 0C9.33671 0 9.65568 0.0825011 9.95691 0.247501L17.0428 4.11906C17.3442 4.28389 17.5791 4.50418 17.7475 4.7799C17.9158 5.0558 18 5.35866 18 5.68849V13.3115C18 13.6413 17.9158 13.9442 17.7475 14.2201C17.5791 14.4958 17.3442 14.7161 17.0428 14.8809L9.95691 18.7525C9.65568 18.9175 9.33671 19 9 19C8.66329 19 8.34432 18.9175 8.04309 18.7525L0.957177 14.8809Z" fill="#F46200"/>
</svg>
