<svg width="14" height="16" viewBox="0 0 14 16" fill="none" xmlns="http://www.w3.org/2000/svg">
<path d="M7.0024 7.88769C7.41698 7.88769 7.77142 7.74005 8.06573 7.44477C8.36017 7.14949 8.5074 6.79456 8.5074 6.37998C8.5074 5.9654 8.35976 5.61088 8.06448 5.31644C7.7692 5.02213 7.4142 4.87498 6.99948 4.87498C6.5849 4.87498 6.23045 5.02262 5.93615 5.3179C5.6417 5.61317 5.49448 5.96817 5.49448 6.3829C5.49448 6.79748 5.64212 7.15192 5.9374 7.44623C6.23267 7.74054 6.58767 7.88769 7.0024 7.88769ZM7.00094 14.2612C8.63122 12.8018 9.87879 11.4019 10.7436 10.0616C11.6085 8.72137 12.0409 7.54748 12.0409 6.53998C12.0409 5.02081 11.5583 3.77192 10.593 2.79331C9.62774 1.8147 8.43038 1.3254 7.00094 1.3254C5.57149 1.3254 4.37413 1.8147 3.40885 2.79331C2.44358 3.77192 1.96094 5.02081 1.96094 6.53998C1.96094 7.54748 2.39337 8.72137 3.25823 10.0616C4.12309 11.4019 5.37066 12.8018 7.00094 14.2612ZM7.00094 15.9246C4.90372 14.1073 3.33108 12.4162 2.28302 10.851C1.23497 9.28574 0.710938 7.84873 0.710938 6.53998C0.710938 4.61692 1.33295 3.06005 2.57698 1.86935C3.82115 0.67866 5.2958 0.083313 7.00094 0.083313C8.70608 0.083313 10.1807 0.67866 11.4249 1.86935C12.6689 3.06005 13.2909 4.61692 13.2909 6.53998C13.2909 7.84873 12.7669 9.28574 11.7189 10.851C10.6708 12.4162 9.09816 14.1073 7.00094 15.9246Z" fill="#78788C" fill-opacity="0.6"/>
</svg>
