<svg width="18" height="17" viewBox="0 0 18 17" fill="none" xmlns="http://www.w3.org/2000/svg">
<path d="M16.0859 17C16.6208 17 17.0735 16.825 17.4441 16.475C17.8147 16.125 18 15.6974 18 15.1923V1.80775C18 1.30258 17.8147 0.875 17.4441 0.525C17.0735 0.175 16.6208 0 16.0859 0H8.98994V1.5H16.0859C16.1674 1.5 16.2421 1.53208 16.3099 1.59625C16.3778 1.66025 16.4118 1.73075 16.4118 1.80775V15.1923C16.4118 15.2692 16.3778 15.3398 16.3099 15.4038C16.2421 15.4679 16.1674 15.5 16.0859 15.5H8.98994V17H16.0859ZM4.52038 12.7692L5.61997 11.6845L3.042 9.25H12.0746V7.75H3.042L5.61997 5.3155L4.52038 4.23075L0 8.5L4.52038 12.7692Z" fill="#0F3C54"/>
</svg>
