<svg width="20" height="20" viewBox="0 0 20 20" fill="none" xmlns="http://www.w3.org/2000/svg">
<path d="M2.49243 13.6184C2.61496 13.9275 2.64224 14.2662 2.57076 14.5909L1.68326 17.3326C1.65466 17.4716 1.66206 17.6156 1.70474 17.751C1.74742 17.8864 1.82398 18.0086 1.92715 18.1061C2.03032 18.2036 2.15668 18.2732 2.29426 18.3081C2.43183 18.3431 2.57606 18.3423 2.71326 18.3059L5.55743 17.4742C5.86386 17.4135 6.1812 17.44 6.47326 17.5509C8.25275 18.3819 10.2686 18.5577 12.1651 18.0473C14.0615 17.5369 15.7168 16.3731 16.8388 14.7612C17.9609 13.1493 18.4775 11.1929 18.2977 9.23719C18.1178 7.28148 17.253 5.45213 15.8558 4.0719C14.4586 2.69167 12.6188 1.84927 10.6611 1.69332C8.70331 1.53737 6.75337 2.07789 5.15529 3.21952C3.55722 4.36115 2.4137 6.03052 1.9265 7.9331C1.4393 9.83568 1.63973 11.8492 2.49243 13.6184Z" stroke="#F46200" stroke-width="1.45833" stroke-linecap="round" stroke-linejoin="round"/>
</svg>
