<svg width="26" height="25" viewBox="0 0 26 25" fill="none" xmlns="http://www.w3.org/2000/svg">
<path d="M24.3333 17.3333C24.3333 17.9522 24.0875 18.5457 23.6499 18.9832C23.2123 19.4208 22.6188 19.6667 22 19.6667H6.63267C6.01388 19.6668 5.42048 19.9127 4.983 20.3503L2.414 22.9193C2.29816 23.0352 2.15057 23.114 1.9899 23.146C1.82924 23.1779 1.6627 23.1615 1.51136 23.0988C1.36001 23.0362 1.23065 22.93 1.13963 22.7938C1.04861 22.6576 1.00002 22.4975 1 22.3337V3.33333C1 2.71449 1.24583 2.121 1.68342 1.68342C2.121 1.24583 2.71449 1 3.33333 1H22C22.6188 1 23.2123 1.24583 23.6499 1.68342C24.0875 2.121 24.3333 2.71449 24.3333 3.33333V17.3333Z" stroke="#9810FA" stroke-width="1.8" stroke-linecap="round" stroke-linejoin="round"/>
</svg>
