<svg width="24" height="24" viewBox="0 0 24 24" fill="none" xmlns="http://www.w3.org/2000/svg">
<path d="M14.0678 5H9.90248C6.09422 5 3 8.04006 3 11.7724C3 15.5048 5.38017 18.1234 11.2116 20.7722C11.3603 20.8324 11.4793 20.8625 11.6281 20.8625C11.8364 20.8625 12.0149 20.8023 12.1934 20.6819C12.4909 20.5013 12.6694 20.1702 12.6694 19.809V18.5147H14.0678C17.876 18.5147 21 15.4747 21 11.7423C21 8.00996 17.876 5 14.0678 5ZM14.0678 17.2205H12.3421C11.7769 17.2205 11.3008 17.702 11.3008 18.2739V19.3876C6.27273 17.0399 4.30909 14.8727 4.30909 11.8025C4.30909 8.82265 6.80826 6.38458 9.90248 6.38458H14.0678C17.1322 6.38458 19.6612 8.82265 19.6612 11.8025C19.6612 14.7824 17.1322 17.2205 14.0678 17.2205Z" fill="#0F3C54"/>
<path d="M8.20578 11.1104C7.819 11.1104 7.52148 11.4113 7.52148 11.8026C7.52148 12.1939 7.819 12.4949 8.20578 12.4949C8.59256 12.4949 8.89008 12.1939 8.89008 11.8026C8.89008 11.4113 8.59256 11.1104 8.20578 11.1104Z" fill="#0F3C54"/>
<path d="M11.9851 11.1104C11.5983 11.1104 11.3008 11.4113 11.3008 11.8026C11.3008 12.1939 11.5983 12.4949 11.9851 12.4949C12.3421 12.4949 12.6694 12.1939 12.6694 11.8026C12.6694 11.4113 12.3421 11.1104 11.9851 11.1104Z" fill="#0F3C54"/>
<path d="M15.7644 11.1104C15.3776 11.1104 15.0801 11.4113 15.0801 11.8026C15.0801 12.1939 15.3776 12.4949 15.7644 12.4949C16.1512 12.4949 16.4487 12.1939 16.4487 11.8026C16.4487 11.4113 16.1214 11.1104 15.7644 11.1104Z" fill="#0F3C54"/>
</svg>
