<svg width="17" height="17" viewBox="0 0 17 17" fill="none" xmlns="http://www.w3.org/2000/svg">
<path d="M10.916 15.3077L7.66289 12.0546L8.54102 11.1763L10.916 13.5513L15.6404 8.82689L16.5185 9.70522L10.916 15.3077ZM15.0827 7.33334H13.8327V3.42314C13.8327 3.35897 13.8059 3.30022 13.7525 3.24689C13.6991 3.19341 13.6404 3.16668 13.5762 3.16668H11.7493V5.34605H4.24935V3.16668H2.42247C2.35831 3.16668 2.29956 3.19341 2.24622 3.24689C2.19275 3.30022 2.16602 3.35897 2.16602 3.42314V14.5769C2.16602 14.6411 2.19275 14.6998 2.24622 14.7531C2.29956 14.8066 2.35831 14.8333 2.42247 14.8333H7.16602V16.0833H2.42247C2.00692 16.0833 1.65192 15.9362 1.35747 15.6419C1.06317 15.3474 0.916016 14.9924 0.916016 14.5769V3.42314C0.916016 3.00758 1.06317 2.65258 1.35747 2.35814C1.65192 2.06383 2.00692 1.91668 2.42247 1.91668H6.09393C6.20935 1.51071 6.44518 1.17418 6.80143 0.907094C7.15768 0.640011 7.55699 0.50647 7.99935 0.50647C8.45879 0.50647 8.86449 0.640011 9.21643 0.907094C9.56852 1.17418 9.80227 1.51071 9.91768 1.91668H13.5762C13.9918 1.91668 14.3468 2.06383 14.6412 2.35814C14.9355 2.65258 15.0827 3.00758 15.0827 3.42314V7.33334ZM7.99935 3.26293C8.21407 3.26293 8.39331 3.19105 8.53706 3.0473C8.68067 2.90355 8.75247 2.72432 8.75247 2.5096C8.75247 2.29487 8.68067 2.11564 8.53706 1.97189C8.39331 1.82828 8.21407 1.75647 7.99935 1.75647C7.78463 1.75647 7.60539 1.82828 7.46164 1.97189C7.31803 2.11564 7.24622 2.29487 7.24622 2.5096C7.24622 2.72432 7.31803 2.90355 7.46164 3.0473C7.60539 3.19105 7.78463 3.26293 7.99935 3.26293Z" fill="#78788C" fill-opacity="0.6"/>
</svg>
