<svg width="28" height="28" viewBox="0 0 28 28" fill="none" xmlns="http://www.w3.org/2000/svg">
<path d="M22.1667 3.5H5.83333C4.54467 3.5 3.5 4.54467 3.5 5.83333V22.1667C3.5 23.4553 4.54467 24.5 5.83333 24.5H22.1667C23.4553 24.5 24.5 23.4553 24.5 22.1667V5.83333C24.5 4.54467 23.4553 3.5 22.1667 3.5Z" stroke="#F46200" stroke-width="1.8" stroke-linecap="round" stroke-linejoin="round"/>
<path d="M10.5013 12.8332C11.79 12.8332 12.8346 11.7885 12.8346 10.4998C12.8346 9.21117 11.79 8.1665 10.5013 8.1665C9.21264 8.1665 8.16797 9.21117 8.16797 10.4998C8.16797 11.7885 9.21264 12.8332 10.5013 12.8332Z" stroke="#F46200" stroke-width="1.8" stroke-linecap="round" stroke-linejoin="round"/>
<path d="M24.5 17.4998L20.8997 13.8995C20.4621 13.462 19.8687 13.2163 19.25 13.2163C18.6313 13.2163 18.0379 13.462 17.6003 13.8995L7 24.4998" stroke="#F46200" stroke-width="1.8" stroke-linecap="round" stroke-linejoin="round"/>
</svg>
