<svg width="24" height="24" viewBox="0 0 24 24" fill="none" xmlns="http://www.w3.org/2000/svg">
<path d="M18.4492 12.75C17.3242 11.4 15.8992 10.4625 14.3242 9.97501C15.8992 9.15001 16.9492 7.50001 16.9492 5.58751C16.9492 2.85001 14.7367 0.600006 11.9617 0.600006C9.18672 0.600006 7.01172 2.88751 7.01172 5.62501C7.01172 7.50001 8.06172 9.15001 9.63672 10.0125C8.06172 10.5 6.67422 11.4375 5.51172 12.7875C3.86172 14.7375 2.92422 17.4375 2.88672 20.4C2.88672 20.7375 3.07422 21.0375 3.33672 21.15C4.34922 21.675 8.02422 23.325 11.9617 23.325C16.2367 23.325 19.6492 21.6375 20.6242 21.1125C20.8867 20.9625 21.0742 20.6625 21.0742 20.3625C21.0367 17.4375 20.0992 14.7375 18.4492 12.75ZM11.9992 2.36251C13.7992 2.36251 15.2992 3.82501 15.2992 5.66251C15.2992 7.50001 13.8367 8.96251 11.9992 8.96251C10.1617 8.96251 8.69922 7.50001 8.69922 5.66251C8.69922 3.82501 10.1992 2.36251 11.9992 2.36251ZM11.9992 21.675C8.88672 21.675 5.84922 20.475 4.61172 19.875C4.76172 17.5125 5.51172 15.4125 6.82422 13.8375C8.17422 12.225 10.0117 11.325 11.9992 11.325C13.9867 11.325 15.8242 12.225 17.1742 13.8375C18.4867 15.375 19.2742 17.5125 19.3867 19.875C18.2242 20.475 15.3742 21.675 11.9992 21.675Z" fill="#0F3C54"/>
</svg>
