<svg width="24" height="24" viewBox="0 0 24 24" fill="none" xmlns="http://www.w3.org/2000/svg">
<path d="M11.2059 20.1077V12.9329L4.58824 9.29531V16.2962C4.58824 16.3476 4.60182 16.3959 4.629 16.4412C4.65618 16.4862 4.69685 16.5248 4.75103 16.557L11.2059 20.1077ZM12.7941 20.1077L19.249 16.557C19.3031 16.5248 19.3438 16.4862 19.371 16.4412C19.3982 16.3959 19.4118 16.3476 19.4118 16.2962V9.29531L12.7941 12.9329V20.1077ZM12 11.6341L18.5382 8.04675L12.1628 4.54631C12.1086 4.51415 12.0544 4.49807 12 4.49807C11.9456 4.49807 11.8914 4.51415 11.8372 4.54631L5.46176 8.04675L12 11.6341ZM3.95718 17.8809C3.65576 17.7161 3.42088 17.4958 3.25253 17.2201C3.08418 16.9442 3 16.6413 3 16.3115V8.68849C3 8.35866 3.08418 8.0558 3.25253 7.7799C3.42088 7.50418 3.65576 7.28389 3.95718 7.11906L11.0431 3.2475C11.3443 3.0825 11.6633 3 12 3C12.3367 3 12.6557 3.0825 12.9569 3.2475L20.0428 7.11906C20.3442 7.28389 20.5791 7.50418 20.7475 7.7799C20.9158 8.0558 21 8.35866 21 8.68849V16.3115C21 16.6413 20.9158 16.9442 20.7475 17.2201C20.5791 17.4958 20.3442 17.7161 20.0428 17.8809L12.9569 21.7525C12.6557 21.9175 12.3367 22 12 22C11.6633 22 11.3443 21.9175 11.0431 21.7525L3.95718 17.8809Z" fill="#0F3C54"/>
</svg>
