<svg width="20" height="20" viewBox="0 0 20 20" fill="none" xmlns="http://www.w3.org/2000/svg">
<path d="M7.69177 19.5L7.31102 16.4538C7.04318 16.3641 6.76852 16.2385 6.48702 16.077C6.20568 15.9153 5.9541 15.7422 5.73227 15.5577L2.91102 16.75L0.603516 12.75L3.04377 10.9058C3.02077 10.7571 3.00443 10.6077 2.99477 10.4578C2.9851 10.3078 2.98027 10.1583 2.98027 10.0095C2.98027 9.86733 2.9851 9.72283 2.99477 9.576C3.00443 9.42917 3.02077 9.26858 3.04377 9.09425L0.603516 7.25L2.91102 3.26925L5.72252 4.452C5.96368 4.261 6.2211 4.08633 6.49477 3.928C6.76843 3.76967 7.03735 3.64242 7.30152 3.54625L7.69177 0.5H12.3073L12.688 3.55575C12.988 3.66475 13.2594 3.792 13.5023 3.9375C13.7453 4.083 13.9905 4.2545 14.238 4.452L17.088 3.26925L19.3955 7.25L16.9168 9.123C16.9526 9.2845 16.9722 9.4355 16.9755 9.576C16.9787 9.71633 16.9803 9.85767 16.9803 10C16.9803 10.1358 16.977 10.274 16.9705 10.4145C16.9642 10.5548 16.9412 10.7154 16.9015 10.8963L19.361 12.75L17.0533 16.75L14.238 15.548C13.9905 15.7455 13.7379 15.9202 13.4803 16.072C13.2226 16.224 12.9585 16.3481 12.688 16.4443L12.3073 19.5H7.69177ZM8.99952 18H10.965L11.3245 15.3212C11.8348 15.1879 12.3012 14.9985 12.7235 14.753C13.146 14.5073 13.5534 14.1916 13.9458 13.8057L16.4303 14.85L17.415 13.15L15.2458 11.5155C15.3291 11.2565 15.3858 11.0026 15.4158 10.7537C15.4459 10.5051 15.461 10.2538 15.461 10C15.461 9.73967 15.4459 9.48842 15.4158 9.24625C15.3858 9.00392 15.3291 8.75642 15.2458 8.50375L17.434 6.85L16.4495 5.15L13.936 6.2095C13.6014 5.85183 13.2004 5.53583 12.7333 5.2615C12.2659 4.98717 11.7932 4.79292 11.315 4.67875L10.9995 2H9.01502L8.68402 4.66925C8.17385 4.78975 7.70277 4.97433 7.27077 5.223C6.8386 5.47183 6.42635 5.79233 6.03402 6.1845L3.54952 5.15L2.56502 6.85L4.72452 8.4595C4.64118 8.69683 4.58285 8.94367 4.54952 9.2C4.51618 9.45633 4.49952 9.72617 4.49952 10.0095C4.49952 10.2698 4.51618 10.525 4.54952 10.775C4.58285 11.025 4.63802 11.2718 4.71502 11.5155L2.56502 13.15L3.54952 14.85L6.02452 13.8C6.40402 14.1897 6.80977 14.5089 7.24177 14.7578C7.67393 15.0064 8.15152 15.1974 8.67452 15.3307L8.99952 18ZM10.011 13C10.843 13 11.551 12.708 12.135 12.124C12.719 11.54 13.011 10.832 13.011 10C13.011 9.168 12.719 8.46 12.135 7.876C11.551 7.292 10.843 7 10.011 7C9.16868 7 8.4581 7.292 7.87927 7.876C7.30043 8.46 7.01102 9.168 7.01102 10C7.01102 10.832 7.30043 11.54 7.87927 12.124C8.4581 12.708 9.16868 13 10.011 13Z" fill="#0F3C54"/>
</svg>
