<svg width="11" height="21" viewBox="0 0 11 21" fill="none" xmlns="http://www.w3.org/2000/svg">
<path d="M5.49969 20.8847C4.03688 20.8847 2.79297 20.3722 1.76797 19.3472C0.742968 18.3222 0.230469 17.0783 0.230469 15.6155V4.80773C0.230469 3.75533 0.605194 2.85442 1.35464 2.10499C2.10408 1.35555 3.00499 0.980835 4.05739 0.980835C5.10979 0.980835 6.01071 1.35555 6.76014 2.10499C7.50958 2.85442 7.88429 3.75533 7.88429 4.80773V14.5578C7.88429 15.2254 7.65376 15.7898 7.19269 16.2508C6.73161 16.7119 6.16719 16.9424 5.49942 16.9424C4.83165 16.9424 4.26732 16.7119 3.80642 16.2508C3.34554 15.7898 3.11509 15.2254 3.11509 14.5578V4.80773H4.30737V14.5578C4.30737 14.8956 4.42164 15.1788 4.65017 15.4073C4.8787 15.6358 5.16188 15.7501 5.49969 15.7501C5.83751 15.7501 6.12069 15.6358 6.34922 15.4073C6.57775 15.1788 6.69202 14.8956 6.69202 14.5578V4.80773C6.69202 4.07003 6.43726 3.44651 5.92774 2.93716C5.41823 2.42779 4.7945 2.17311 4.05657 2.17311C3.31865 2.17311 2.6952 2.42779 2.18622 2.93716C1.67725 3.44651 1.42277 4.07003 1.42277 4.80773V15.6155C1.42277 16.7411 1.82084 17.702 2.61699 18.4982C3.41314 19.2943 4.37404 19.6924 5.49969 19.6924C6.62534 19.6924 7.58624 19.2943 8.38239 18.4982C9.17854 17.702 9.57662 16.7411 9.57662 15.6155V4.80773H10.7689V15.6155C10.7689 17.0783 10.2564 18.3222 9.23142 19.3472C8.20642 20.3722 6.96251 20.8847 5.49969 20.8847Z" fill="#0F3C54"/>
</svg>
