<svg width="36" height="36" viewBox="0 0 36 36" fill="none" xmlns="http://www.w3.org/2000/svg">
<path d="M6 28.6289C6 29.4312 6.2625 30.1103 6.7875 30.6662C7.3125 31.2221 7.95387 31.5 8.71162 31.5L28.7884 31.5C29.5461 31.5 30.1875 31.2221 30.7125 30.6662C31.2375 30.1103 31.5 29.4312 31.5 28.6289L31.5 17.9849H29.25L29.25 28.6289C29.25 28.7512 29.2019 28.8631 29.1056 28.9648C29.0096 29.0667 28.9039 29.1176 28.7884 29.1176L8.71162 29.1176C8.59612 29.1176 8.49037 29.0667 8.39437 28.9648C8.29812 28.8631 8.25 28.7512 8.25 28.6289L8.25 17.9849L6 17.9849L6 28.6289ZM12.3461 11.2806L13.9732 12.93L17.625 9.063L17.625 22.6118H19.875L19.875 9.063L23.5268 12.93L25.1539 11.2806L18.75 4.5L12.3461 11.2806Z" fill="#0F3C54"/>
</svg>
