<svg width="24" height="24" viewBox="0 0 24 24" fill="none" xmlns="http://www.w3.org/2000/svg">
<path d="M15 18.75V17.25C15 16.4544 14.6839 15.6913 14.1213 15.1287C13.5587 14.5661 12.7956 14.25 12 14.25H7.5C6.70435 14.25 5.94129 14.5661 5.37868 15.1287C4.81607 15.6913 4.5 16.4544 4.5 17.25V18.75" stroke="#0F3C54" stroke-width="1.4" stroke-linecap="round" stroke-linejoin="round"/>
<path d="M15 5.34619C15.6433 5.51297 16.213 5.88864 16.6198 6.41424C17.0265 6.93984 17.2471 7.58561 17.2471 8.25019C17.2471 8.91477 17.0265 9.56055 16.6198 10.0861C16.213 10.6117 15.6433 10.9874 15 11.1542" stroke="#0F3C54" stroke-width="1.4" stroke-linecap="round" stroke-linejoin="round"/>
<path d="M19.5 18.7502V17.2502C19.4995 16.5855 19.2783 15.9397 18.871 15.4144C18.4638 14.889 17.8936 14.5138 17.25 14.3477" stroke="#0F3C54" stroke-width="1.4" stroke-linecap="round" stroke-linejoin="round"/>
<path d="M9.75 11.25C11.4069 11.25 12.75 9.90685 12.75 8.25C12.75 6.59315 11.4069 5.25 9.75 5.25C8.09315 5.25 6.75 6.59315 6.75 8.25C6.75 9.90685 8.09315 11.25 9.75 11.25Z" stroke="#0F3C54" stroke-width="1.4" stroke-linecap="round" stroke-linejoin="round"/>
</svg>
