<svg width="22" height="22" viewBox="0 0 22 22" fill="none" xmlns="http://www.w3.org/2000/svg">
<path d="M14.5742 18.8801V17.158C14.5742 16.2446 14.2113 15.3686 13.5654 14.7226C12.9195 14.0767 12.0434 13.7139 11.13 13.7139H5.96371C5.05026 13.7139 4.17422 14.0767 3.52831 14.7226C2.8824 15.3686 2.51953 16.2446 2.51953 17.158V18.8801" stroke="#F46200" stroke-width="1.20546" stroke-linecap="round" stroke-linejoin="round"/>
<path d="M14.5703 3.49121C15.3089 3.68268 15.963 4.11397 16.4299 4.71739C16.8968 5.32081 17.1502 6.0622 17.1502 6.82518C17.1502 7.58816 16.8968 8.32954 16.4299 8.93296C15.963 9.53638 15.3089 9.96767 14.5703 10.1591" stroke="#F46200" stroke-width="1.20546" stroke-linecap="round" stroke-linejoin="round"/>
<path d="M19.7394 18.88V17.1579C19.7388 16.3948 19.4848 15.6535 19.0173 15.0504C18.5497 14.4472 17.8951 14.0165 17.1562 13.8257" stroke="#F46200" stroke-width="1.20546" stroke-linecap="round" stroke-linejoin="round"/>
<path d="M8.54574 10.2697C10.4479 10.2697 11.9899 8.7277 11.9899 6.82553C11.9899 4.92336 10.4479 3.38135 8.54574 3.38135C6.64357 3.38135 5.10156 4.92336 5.10156 6.82553C5.10156 8.7277 6.64357 10.2697 8.54574 10.2697Z" stroke="#F46200" stroke-width="1.20546" stroke-linecap="round" stroke-linejoin="round"/>
</svg>
