<svg width="28" height="28" viewBox="0 0 28 28" fill="none" xmlns="http://www.w3.org/2000/svg">
<path d="M25.3518 21.0001L16.0185 4.66677C15.815 4.30767 15.5199 4.00898 15.1632 3.80118C14.8066 3.59337 14.4012 3.48389 13.9885 3.48389C13.5757 3.48389 13.1704 3.59337 12.8138 3.80118C12.4571 4.00898 12.162 4.30767 11.9585 4.66677L2.62516 21.0001C2.41946 21.3564 2.31159 21.7607 2.31251 22.172C2.31342 22.5834 2.42307 22.9872 2.63035 23.3426C2.83763 23.6979 3.13517 23.9921 3.49281 24.1954C3.85045 24.3987 4.25547 24.5038 4.66683 24.5001H23.3335C23.7429 24.4997 24.1449 24.3916 24.4993 24.1866C24.8537 23.9816 25.1479 23.687 25.3524 23.3324C25.5569 22.9778 25.6645 22.5756 25.6644 22.1662C25.6643 21.7568 25.5565 21.3546 25.3518 21.0001Z" stroke="#FB2C36" stroke-width="2.33333" stroke-linecap="round" stroke-linejoin="round"/>
<path d="M14 10.5V15.1667" stroke="#FB2C36" stroke-width="2.33333" stroke-linecap="round" stroke-linejoin="round"/>
<path d="M14 19.8335H14.0117" stroke="#FB2C36" stroke-width="2.33333" stroke-linecap="round" stroke-linejoin="round"/>
</svg>
